<svg id="Layer_1" data-name="Layer 1" xmlns="http://www.w3.org/2000/svg" width="256" height="256" viewBox="0 0 256 256"><title>cart</title><circle cx="66.9" cy="224.6" r="16.7" transform="translate(-35.1 13.6) rotate(-9.2)"/><circle cx="186.2" cy="224.6" r="16.7" transform="translate(-33.6 32.7) rotate(-9.2)"/><path d="M189.7,162.1a18.7,18.7,0,0,0,16.4-9.7l41.5-74a18.9,18.9,0,0,0-16.5-28.1H46.9L43.1,28.7,28.2,22.1A11.5,11.5,0,1,0,17.5,37.7a10.4,10.4,0,0,0,4.3-.9l7,3.1,7.7,44.9h.1l13.2,76.4L43,182.1a15.4,15.4,0,0,0,2.2,14.1,15.6,15.6,0,0,0,12.7,6.5H199.5a5.8,5.8,0,0,0,4.9-2.8l2.8-4.6a5.7,5.7,0,0,0-5-8.6H58.3l8.1-24.6Z"/></svg>