<svg id="Layer_1" data-name="Layer 1" xmlns="http://www.w3.org/2000/svg" width="256" height="256" viewBox="0 0 256 256"><title>instagram</title><path d="M181.4,28.1a46.5,46.5,0,0,1,46.5,46.5V181.4a46.5,46.5,0,0,1-46.5,46.5H74.6a46.5,46.5,0,0,1-46.5-46.5V74.6A46.5,46.5,0,0,1,74.6,28.1H181.4m0-22.1H74.6A68.6,68.6,0,0,0,6,74.6V181.4A68.6,68.6,0,0,0,74.6,250H181.4A68.6,68.6,0,0,0,250,181.4V74.6A68.6,68.6,0,0,0,181.4,6Z"/><path d="M128,87.9A40.1,40.1,0,1,1,87.9,128,40.2,40.2,0,0,1,128,87.9m0-22.1A62.2,62.2,0,1,0,190.2,128,62.3,62.3,0,0,0,128,65.8Z"/><path d="M193,77.8c-8,0-15.1-7.4-14.8-15.4a15,15,0,0,1,15.2-14.3A14.7,14.7,0,0,1,207.8,63,15,15,0,0,1,193,77.8Z"/></svg>