<svg id="Layer_1" data-name="Layer 1" xmlns="http://www.w3.org/2000/svg" width="659.8" height="226.2" viewBox="0 0 659.8 226.2"><title>logo</title><path d="M78.2,36.8H43.9v24H89.2v11c0,9.7-6.9,16-15.3,16H44.6v48.5H27.5c-11.2,0-18.8-5.6-18.8-17.5V31c0-15.8,8.7-23.3,25.9-23.3H96.8V20.2C96.8,27.7,90.6,36.8,78.2,36.8Z" fill="none" stroke="#231f20" stroke-miterlimit="10" stroke-width="0.47"/><path d="M139.7,139.1c-19.8,0-43.8-9.3-43.8-32.6s16.4-34.3,53.6-34.3h5.1V67.9c0-8.4-6.6-10.4-20.5-10.4-19.2,0-26.3,4.4-33.6,11.2h-.9V56.2c0-12.7,13.2-25.4,42.5-25.4s46.8,14.4,46.8,44.6V91.2C188.9,128.5,176.9,139.1,139.7,139.1Zm15.6-44.9h-7.1c-13.4,0-18.8,3.3-18.8,10.2s4.1,9.9,14,9.9c6.3,0,11.9-3.2,11.9-12.5Z" fill="none" stroke="#231f20" stroke-miterlimit="10" stroke-width="0.47"/><path d="M287.8,136.3c-15.6,0-20.5-5.2-20.5-20.9V79.5c0-13.8-4.7-20-16.6-20-10.2,0-15.8,6.9-15.8,19.4v57.4H223c-15.1,0-23.5-6-23.5-20.9V79.5c0-29.5,19.5-48.7,52.2-48.7,36.3,0,51,19.2,51,49.6v55.9Z" fill="none" stroke="#231f20" stroke-miterlimit="10" stroke-width="0.47"/><path d="M421.6,48.5c-6.5-8.4-23.5-13.2-37.6-13.2-20.9,0-36.2,13.8-36.2,34.7,0,26.2,16,38.7,36.9,38.7,13.8,0,30-5.2,36.3-11.9h0V110c0,16.6-16.5,29.3-41.7,29.3-35.2,0-66.9-25.4-66.9-66,0-37.4,26.3-68.6,69.1-68.6,25.2,0,40.1,12.5,40.1,30.6V48.5Z" fill="none" stroke="#231f20" stroke-miterlimit="10" stroke-width="0.47"/><path d="M485.7,31c28,0,53.1,21.3,53.1,52.9,0,33.6-20.3,55.2-55.7,55.2-29.3,0-53.1-21.6-53.1-51.8C430,53.4,453.5,31,485.7,31Zm-2.2,28C473.8,59,465,69.2,465,83.2c0,19.7,7.9,28.3,20.3,28.3s18.5-10.2,18.5-24.4C503.8,68.7,495.8,59,483.5,59Z" fill="none" stroke="#231f20" stroke-miterlimit="10" stroke-width="0.47"/><path d="M636.9,136.3c-15.7,0-20.5-5.2-20.5-20.9V79.5c0-13.8-4.7-20-16.6-20-10.2,0-15.8,6.9-15.8,19.4v57.4H572c-15,0-23.4-6-23.4-20.9V79.5c0-29.5,19.5-48.7,52.1-48.7,36.4,0,51.1,19.2,51.1,49.6v55.9Z" fill="none" stroke="#231f20" stroke-miterlimit="10" stroke-width="0.47"/><path d="M78.2,36.8H43.9v24H89.2v11c0,9.7-6.9,16-15.3,16H44.6v48.5H27.5c-11.2,0-18.8-5.6-18.8-17.5V31c0-15.8,8.7-23.3,25.9-23.3H96.8V20.2C96.8,27.7,90.6,36.8,78.2,36.8Z" fill="#70d44b"/><path d="M139.7,139.1c-19.8,0-43.8-9.3-43.8-32.6s16.4-34.3,53.6-34.3h5.1V67.9c0-8.4-6.6-10.4-20.5-10.4-19.2,0-26.3,4.4-33.6,11.2h-.9V56.2c0-12.7,13.2-25.4,42.5-25.4s46.8,14.4,46.8,44.6V91.2C188.9,128.5,176.9,139.1,139.7,139.1Zm15.6-44.9h-7.1c-13.4,0-18.8,3.3-18.8,10.2s4.1,9.9,14,9.9c6.3,0,11.9-3.2,11.9-12.5Z" fill="#70d44b"/><path d="M287.8,136.3c-15.6,0-20.5-5.2-20.5-20.9V79.5c0-13.8-4.7-20-16.6-20-10.2,0-15.8,6.9-15.8,19.4v57.4H223c-15.1,0-23.5-6-23.5-20.9V79.5c0-29.5,19.5-48.7,52.2-48.7,36.3,0,51,19.2,51,49.6v55.9Z" fill="#70d44b"/><path d="M421.6,48.5c-6.5-8.4-23.5-13.2-37.6-13.2-20.9,0-36.2,13.8-36.2,34.7,0,26.2,16,38.7,36.9,38.7,13.8,0,30-5.2,36.3-11.9h0V110c0,16.6-16.5,29.3-41.7,29.3-35.2,0-66.9-25.4-66.9-66,0-37.4,26.3-68.6,69.1-68.6,25.2,0,40.1,12.5,40.1,30.6V48.5Z" fill="#70d44b"/><path d="M485.7,31c28,0,53.1,21.3,53.1,52.9,0,33.6-20.3,55.2-55.7,55.2-29.3,0-53.1-21.6-53.1-51.8C430,53.4,453.5,31,485.7,31Zm-2.2,28C473.8,59,465,69.2,465,83.2c0,19.7,7.9,28.3,20.3,28.3s18.5-10.2,18.5-24.4C503.8,68.7,495.8,59,483.5,59Z" fill="#70d44b"/><path d="M636.9,136.3c-15.7,0-20.5-5.2-20.5-20.9V79.5c0-13.8-4.7-20-16.6-20-10.2,0-15.8,6.9-15.8,19.4v57.4H572c-15,0-23.4-6-23.4-20.9V79.5c0-29.5,19.5-48.7,52.1-48.7,36.4,0,51.1,19.2,51.1,49.6v55.9Z" fill="#70d44b"/><path d="M78.2,36.8H43.9v24H89.2v11c0,9.7-6.9,16-15.3,16H44.6v48.5H27.5c-11.2,0-18.8-5.6-18.8-17.5V31c0-15.8,8.7-23.3,25.9-23.3H96.8V20.2C96.8,27.7,90.6,36.8,78.2,36.8Z" fill="none" stroke="#225d38" stroke-linecap="round" stroke-linejoin="round" stroke-width="5.67"/><path d="M139.7,139.1c-19.8,0-43.8-9.3-43.8-32.6s16.4-34.3,53.6-34.3h5.1V67.9c0-8.4-6.6-10.4-20.5-10.4-19.2,0-26.3,4.4-33.6,11.2h-.9V56.2c0-12.7,13.2-25.4,42.5-25.4s46.8,14.4,46.8,44.6V91.2C188.9,128.5,176.9,139.1,139.7,139.1Zm15.6-44.9h-7.1c-13.4,0-18.8,3.3-18.8,10.2s4.1,9.9,14,9.9c6.3,0,11.9-3.2,11.9-12.5Z" fill="none" stroke="#225d38" stroke-linecap="round" stroke-linejoin="round" stroke-width="5.67"/><path d="M287.8,136.3c-15.6,0-20.5-5.2-20.5-20.9V79.5c0-13.8-4.7-20-16.6-20-10.2,0-15.8,6.9-15.8,19.4v57.4H223c-15.1,0-23.5-6-23.5-20.9V79.5c0-29.5,19.5-48.7,52.2-48.7,36.3,0,51,19.2,51,49.6v55.9Z" fill="none" stroke="#225d38" stroke-linecap="round" stroke-linejoin="round" stroke-width="5.67"/><path d="M421.6,48.5c-6.5-8.4-23.5-13.2-37.6-13.2-20.9,0-36.2,13.8-36.2,34.7,0,26.2,16,38.7,36.9,38.7,13.8,0,30-5.2,36.3-11.9h0V110c0,16.6-16.5,29.3-41.7,29.3-35.2,0-66.9-25.4-66.9-66,0-37.4,26.3-68.6,69.1-68.6,25.2,0,40.1,12.5,40.1,30.6V48.5Z" fill="none" stroke="#225d38" stroke-linecap="round" stroke-linejoin="round" stroke-width="5.67"/><path d="M485.7,31c28,0,53.1,21.3,53.1,52.9,0,33.6-20.3,55.2-55.7,55.2-29.3,0-53.1-21.6-53.1-51.8C430,53.4,453.5,31,485.7,31Zm-2.2,28C473.8,59,465,69.2,465,83.2c0,19.7,7.9,28.3,20.3,28.3s18.5-10.2,18.5-24.4C503.8,68.7,495.8,59,483.5,59Z" fill="none" stroke="#225d38" stroke-linecap="round" stroke-linejoin="round" stroke-width="5.67"/><path d="M636.9,136.3c-15.7,0-20.5-5.2-20.5-20.9V79.5c0-13.8-4.7-20-16.6-20-10.2,0-15.8,6.9-15.8,19.4v57.4H572c-15,0-23.4-6-23.4-20.9V79.5c0-29.5,19.5-48.7,52.1-48.7,36.4,0,51.1,19.2,51.1,49.6v55.9Z" fill="none" stroke="#225d38" stroke-linecap="round" stroke-linejoin="round" stroke-width="5.67"/><path d="M91.1,13.4V19H40.2C18.7,19,20,23.3,20,36.7v92.5c-5.7-2.6-5.7-8.2-5.7-10.4V31c0-8.7,2.4-17.6,20.3-17.6Z" fill="#fff"/><path d="M178.8,54.5c-8.2-9.7-21.3-12.3-32.9-12.3-14.6,0-30,4.1-35.1,13a40.2,40.2,0,0,0-5.5,2.7V56.2c0-13.6,19-19.7,36.8-19.7C155.8,36.5,171.3,40.1,178.8,54.5Z" fill="#fff"/><path d="M144.6,133.3h-4.9c-13.2,0-38.2-5.6-38.2-26.9,0-13.3,5.5-28.6,48-28.6h7.6c-42.6,0-48,15.3-48,28.6C109.1,126.5,131,132.7,144.6,133.3Z" fill="#fff"/><path d="M229.2,130.6h-6.3c-14.7,0-17.8-6.1-17.8-15.2V79.5c0-26.9,17.4-43,46.6-43h3.9c-26.9,1.3-42.9,17.1-42.9,42.9v35.9C212.7,124.3,215.6,130.3,229.2,130.6Z" fill="#fff"/><path d="M578.3,130.6H572c-14.7,0-17.8-6.1-17.8-15.2V79.5c0-26.9,17.4-43,46.5-43h4c-27,1.3-42.9,17.1-42.9,42.9v35.9C561.8,124.3,564.6,130.3,578.3,130.6Z" fill="#fff"/><path d="M384.2,133.4a39.3,39.3,0,0,1-4.9.2c-29.7,0-61.2-21.1-61.2-60.3,0-37,26.1-62.9,63.4-62.9l4.6.2c-34.8,2.1-58.6,27.3-58.6,62.7C327.5,110.4,355.9,131.4,384.2,133.4Z" fill="#fff"/><path d="M488.3,133.3h-5.2c-27,0-47.4-19.8-47.4-46.1,0-30.3,20.1-50.6,50-50.6l4.3.2c-27,2.2-44.9,21.9-44.9,50.4C445.1,112.2,463.4,131.3,488.3,133.3Z" fill="#fff"/><path d="M35.7,221.7c-16.5,0-29.8-13.2-29.8-32.7s11.4-34.6,31.2-34.6c15.8,0,29.7,12,29.7,32.6S55.5,221.7,35.7,221.7Zm.2-55.8c-9.6,0-16.6,7.8-16.6,21.1,0,15.7,5.7,23.4,17.6,23.4,10.1,0,16.5-7.2,16.5-21.6S46.9,165.9,35.9,165.9Z" fill="#54565a"/><path d="M147.7,161.2c1.7-2,4-3.5,6-3.5h2.9v11.6h17.8v5.2c0,2.7-2.4,6.1-7.6,6.1H156.6v20c0,6.7,3,9.2,8.1,9.2s7.2-.5,9.2-1.8h.5v4.6c0,5.2-3.8,8.6-11.2,8.6-12.9,0-19.2-7.1-19.2-19V171.4C144,166.3,144.9,164.4,147.7,161.2Z" fill="#54565a"/><path d="M252.7,161.2c1.7-2,4-3.5,6-3.5h2.9v11.6h17.8v5.2c0,2.7-2.4,6.1-7.6,6.1H261.6v20c0,6.7,3,9.2,8.1,9.2s7.2-.5,9.2-1.8h.5v4.6c0,5.2-3.8,8.6-11.2,8.6-13,0-19.2-7.1-19.2-19V171.4C249,166.3,249.9,164.4,252.7,161.2Z" fill="#54565a"/><path d="M374.3,221.4h-2.6c-12.1,0-20.5-6.8-20.5-16.2s6.7-16.1,25.5-16.1h4.4v-.6c0-7.3-3.4-9.4-11-9.4-9.2,0-14.3,3.5-16.2,5.9h-.5v-4.1c0-5.7,5.1-12.6,18.6-12.6,11.4,0,21.7,5.3,21.7,23v11.8C393.7,213.9,385.7,221.4,374.3,221.4Zm6.9-23.1h-4.5c-9.7,0-12.5,2.2-12.5,6.4s3.3,6.4,8.9,6.4,8.1-2.7,8.1-7.9Z" fill="#54565a"/><path d="M533.7,196c-3.8,10.8-8.5,20.2-11.8,25.2h-2.1c-4,0-7.1-3.8-8.8-6.9-3.1-5.7-7-15.2-8.4-23-1.7,7.8-7.6,23.7-12.2,29.9h-1.7c-3.8,0-7.4-3.8-9.1-6.9a123.7,123.7,0,0,1-14.7-45h6.9a7.4,7.4,0,0,1,7.4,6.2,111,111,0,0,0,8.2,27.7c4.6-10.2,7.2-21.2,9.7-32h4.1c3.9,0,7.8,1.6,9.1,7.2s4.6,17.6,8.2,24.8c4.9-10.7,7.6-22.6,9.6-34.2h5.3c3.7,0,6.2,1.6,6.2,5.5C539.6,176.5,537.5,185.3,533.7,196Z" fill="#54565a"/><path d="M634.5,221.4H632c-12.2,0-20.5-6.8-20.5-16.2s6.6-16.1,25.4-16.1h4.5v-.6c0-7.3-3.4-9.4-11-9.4-9.3,0-14.4,3.5-16.3,5.9h-.5v-4.1c0-5.7,5.2-12.6,18.7-12.6,11.4,0,21.6,5.3,21.6,23v11.8C653.9,213.9,645.9,221.4,634.5,221.4Zm7-23.1h-4.6c-9.7,0-12.4,2.2-12.4,6.4s3.2,6.4,8.8,6.4,8.2-2.7,8.2-7.9Z" fill="#54565a"/></svg>