<svg id="Layer_1" data-name="Layer 1" xmlns="http://www.w3.org/2000/svg" width="256" height="256" viewBox="0 0 256 256"><title>profile</title><path d="M209.3,201.7a10.8,10.8,0,0,1,4.6,19.2,141.3,141.3,0,0,1-171.8,0,10.8,10.8,0,0,1,4.6-19.2c7.7-1.5,15.4-2.7,21-4,12.3-2.9,17.5-17.8,23.6-22.4a10.8,10.8,0,0,0,4.4-7.8,106.5,106.5,0,0,0,.2-11.4,11.3,11.3,0,0,0-2.7-6.9c-4.7-5.5-7.1-19.7-7.7-27.4a10.2,10.2,0,0,0-2.2-5.6c-5.4-7-11.9-30.1-7.9-34.4a10.2,10.2,0,0,0,3-7.8c-1.9-18.5.7-42.1,4-49.5S108.1,6,128,6s41.7,9.9,45.5,18.5,5.9,31,4.1,49.5a10.2,10.2,0,0,0,3,7.8c4,4.3-2.6,27.4-8,34.4a10.9,10.9,0,0,0-2.1,5.5c-.6,7.7-3,21.9-7.7,27.5a11.5,11.5,0,0,0-2.8,6.9,105.6,105.6,0,0,0,.3,11.4,10.8,10.8,0,0,0,4.4,7.8c6.1,4.6,11.3,19.5,23.6,22.4C193.9,199,201.6,200.2,209.3,201.7Z"/></svg>