<svg id="Layer_1" data-name="Layer 1" xmlns="http://www.w3.org/2000/svg" width="256" height="256" viewBox="0 0 256 256"><title>twitter</title><path d="M128,81.9c-6.9-55.6,60.9-76.4,87.5-35C234,37.1,238.1,34.4,241.9,33c-4.8,18.7-17.4,29.6-21.7,31.8L250,55.2c-10,21.3-24.3,26.9-24.3,26.9C231.2,173.9,137.5,277.4,6,208.5c46,2.9,70.9-19.7,70.9-19.7-27.2.7-47.6-24.6-46.9-33.7,13.8,4.2,31.8,6,39.6.7-46.4-15.3-55.5-43.9-56.2-56.9,6.8,2.7,14.2,6,23,7.3C3.3,84.4,12.3,52.6,20.8,41.2,54.3,84.8,128,81.9,128,81.9Z"/></svg>